<?xml version="1.0" standalone="no"?>
<!DOCTYPE svg PUBLIC "-//W3C//DTD SVG 20010904//EN"
 "http://www.w3.org/TR/2001/REC-SVG-20010904/DTD/svg10.dtd">
<svg version="1.0" xmlns="http://www.w3.org/2000/svg"
 width="1168.000000pt" height="1280.000000pt" viewBox="0 0 1168.000000 1280.000000"
 preserveAspectRatio="xMidYMid meet">
<metadata>
Created by potrace 1.15, written by Peter Selinger 2001-2017
</metadata>
<g transform="translate(0.000000,1280.000000) scale(0.100000,-0.100000)"
fill="#000000" stroke="none">
<path d="M6330 12791 c-99 -32 -168 -111 -199 -229 -15 -54 -34 -66 -178 -108
-264 -78 -372 -168 -438 -363 -29 -86 -36 -147 -38 -327 l-2 -140 -48 -83
c-33 -56 -47 -90 -43 -105 3 -11 26 -44 51 -73 36 -40 51 -70 70 -132 36 -123
60 -169 88 -176 14 -4 83 7 158 25 74 17 159 37 189 45 30 7 62 16 71 19 24
10 60 -70 66 -148 9 -102 -26 -174 -92 -196 -31 -10 -41 -8 -90 14 -61 30 -97
27 -120 -8 -7 -11 -28 -75 -45 -140 -33 -132 -50 -161 -133 -228 -28 -24 -79
-70 -113 -103 -51 -51 -66 -74 -93 -145 -55 -148 -64 -161 -149 -246 -71 -69
-84 -86 -78 -106 3 -13 8 -32 11 -43 9 -35 -59 -110 -249 -273 -102 -86 -184
-161 -184 -166 0 -5 -24 -22 -54 -38 -29 -16 -69 -42 -89 -58 l-36 -28 -74 40
c-41 22 -78 43 -84 48 -5 4 -27 13 -47 19 -83 27 -558 526 -590 620 -9 27 -39
85 -66 128 -70 109 -74 121 -55 181 9 27 13 60 10 74 -7 26 -110 133 -150 155
-12 7 -43 12 -69 13 -27 0 -48 4 -48 8 0 5 18 36 40 70 69 107 101 182 77 182
-35 -1 -88 -47 -173 -150 -96 -115 -133 -147 -183 -154 -23 -3 -58 -8 -79 -11
-55 -9 -112 -44 -146 -93 -24 -33 -31 -55 -34 -105 -4 -71 15 -137 94 -327 43
-103 48 -125 52 -207 4 -87 3 -93 -21 -117 -13 -13 -44 -30 -68 -36 -114 -28
-195 -60 -327 -127 -80 -40 -162 -78 -183 -83 -61 -17 -452 -297 -493 -353
-38 -51 -28 -93 70 -302 48 -104 99 -209 112 -233 l24 -43 24 34 c27 40 41 47
93 47 46 0 107 -41 146 -97 14 -21 42 -90 61 -153 61 -200 77 -230 157 -306
40 -37 96 -90 125 -117 29 -28 56 -62 60 -76 4 -14 7 -68 7 -119 0 -110 -5
-116 -93 -127 -94 -11 -172 -34 -267 -79 -167 -80 -285 -176 -429 -350 -240
-289 -417 -560 -795 -1218 -297 -518 -420 -698 -619 -902 -65 -66 -431 -379
-580 -495 l-43 -34 26 -27 c32 -34 126 -80 220 -109 74 -23 105 -22 199 5 27
8 67 14 88 14 57 0 65 -29 39 -145 -27 -115 -26 -160 2 -215 28 -57 67 -82
169 -110 149 -40 213 -20 288 90 51 75 70 94 82 82 6 -6 13 -63 17 -128 8
-127 19 -160 68 -206 47 -44 93 -58 245 -78 62 -7 98 -20 180 -62 130 -65 181
-76 300 -65 103 11 143 3 215 -43 49 -32 244 -96 332 -111 92 -15 126 -4 185
58 69 74 94 87 216 118 68 17 135 42 189 72 108 58 253 113 297 113 56 0 94
-22 189 -110 119 -109 167 -140 221 -140 35 0 47 5 67 30 14 16 28 49 32 72
28 176 55 228 119 228 20 0 83 -18 141 -40 101 -39 177 -50 219 -34 26 10 19
20 -41 59 -120 79 -143 116 -102 169 37 47 136 32 220 -35 63 -49 73 -78 66
-184 -4 -50 -4 -101 0 -113 l6 -23 23 22 c52 49 90 200 104 418 35 533 41 942
22 1501 -24 679 -48 901 -128 1195 -102 370 -252 588 -523 762 -56 36 -111 58
-271 108 -105 33 -174 70 -190 101 -15 26 -8 161 10 208 5 15 37 65 70 111
l60 82 -6 239 c-4 190 -3 244 8 264 20 37 53 37 94 1 41 -37 44 -37 79 -9 37
29 60 87 80 204 9 54 26 124 37 154 56 152 38 186 -238 450 -173 166 -259 209
-427 216 -54 2 -107 6 -117 9 -22 7 -25 23 -40 165 -11 99 -15 112 -71 223
-95 188 -106 262 -47 324 44 47 115 20 247 -96 129 -112 238 -249 426 -531
174 -263 252 -360 291 -360 7 0 11 -6 9 -12 -6 -15 139 -199 286 -366 107
-120 196 -197 238 -205 40 -8 97 22 196 104 50 40 173 134 275 208 249 181
294 215 372 283 37 33 81 63 98 68 27 8 30 6 30 -15 0 -16 17 -38 54 -70 44
-37 65 -66 105 -148 60 -120 80 -204 88 -367 6 -139 -13 -251 -50 -288 -13
-12 -50 -30 -83 -38 -267 -69 -492 -309 -597 -639 -54 -168 -69 -273 -74 -505
-5 -211 -2 -246 77 -920 5 -47 19 -166 30 -265 46 -405 92 -699 221 -1405 68
-376 86 -459 100 -476 31 -38 198 -94 279 -94 30 0 39 4 43 22 4 12 8 20 11
18 2 -3 37 -131 76 -285 83 -325 122 -451 195 -630 73 -181 102 -268 125 -371
21 -94 48 -340 38 -349 -3 -3 -45 3 -94 14 -218 48 -254 54 -359 55 -89 1
-116 -3 -143 -17 -44 -24 -811 -754 -1447 -1377 -126 -124 -266 -256 -309
-295 -106 -93 -163 -187 -127 -209 17 -11 309 266 991 939 357 351 682 663
832 798 112 100 154 112 288 82 36 -8 119 -26 185 -40 163 -34 191 -47 210
-99 8 -23 28 -176 45 -356 98 -1006 115 -1122 226 -1528 36 -130 71 -280 79
-332 7 -52 19 -111 26 -130 13 -40 59 -94 70 -83 11 13 126 332 151 418 18 65
23 105 23 210 -1 147 -14 209 -106 491 -87 268 -112 381 -145 654 -13 106 -14
172 -8 305 4 94 8 210 8 258 l1 89 35 -5 c19 -3 145 -28 280 -56 326 -66 778
-146 1705 -301 726 -122 972 -164 1315 -225 80 -14 196 -35 259 -46 140 -24
203 -38 396 -84 223 -54 515 -113 645 -131 187 -26 373 -11 387 31 2 6 -59 20
-140 33 -208 34 -1227 209 -1347 232 -30 6 -210 37 -400 70 -190 33 -370 64
-400 70 -67 13 -1060 187 -1505 263 -176 31 -369 63 -430 72 -403 61 -679 115
-778 154 -46 18 -50 45 -44 296 11 463 -29 841 -123 1156 -75 252 -81 537 -24
1059 25 235 66 457 204 1120 45 215 118 652 149 885 45 342 51 599 16 815 -21
136 -30 163 -78 221 -92 113 -101 130 -105 195 -8 125 53 289 218 584 113 202
229 440 281 579 22 57 44 110 50 118 19 22 46 15 59 -17 14 -33 20 -36 38 -18
10 10 11 5 6 -20 -6 -29 -2 -36 45 -79 l51 -46 93 -1 c84 -1 98 -4 167 -37 41
-20 125 -66 185 -104 155 -96 300 -165 346 -165 55 0 75 31 162 247 41 103 94
230 116 282 23 52 41 96 41 97 0 2 -8 0 -17 -3 -12 -4 -6 7 14 30 43 49 52 68
108 227 60 170 98 248 168 341 74 100 83 120 111 251 13 62 31 139 41 171 14
49 20 57 40 57 24 0 24 0 10 -41 -21 -58 -19 -158 4 -218 10 -28 36 -76 58
-108 21 -32 63 -93 92 -137 63 -92 77 -152 45 -187 -24 -27 -71 -50 -154 -78
-86 -28 -155 -69 -223 -131 -65 -59 -150 -168 -141 -181 3 -5 -2 -12 -11 -15
-25 -10 -49 -66 -100 -234 -25 -85 -74 -225 -107 -310 -102 -260 -108 -279
-108 -326 0 -58 18 -91 102 -189 38 -44 90 -109 116 -144 59 -81 92 -105 138
-104 42 1 65 21 107 90 17 28 41 57 54 64 15 8 25 25 29 48 15 92 35 120 63
88 6 -8 18 -47 26 -87 22 -103 47 -140 172 -257 60 -56 122 -119 137 -142 25
-35 58 -112 52 -118 -1 -2 -22 7 -46 18 -112 54 -285 -16 -567 -228 -331 -250
-489 -467 -736 -1013 -70 -156 -207 -489 -295 -720 -23 -58 -68 -177 -102
-265 -34 -88 -118 -311 -187 -495 -69 -184 -148 -387 -175 -450 -107 -251
-280 -546 -339 -578 -17 -9 -41 -24 -53 -34 l-21 -16 30 -43 c17 -24 53 -55
83 -72 70 -39 169 -46 351 -22 99 12 165 15 250 10 130 -8 189 2 226 39 17 17
28 20 44 14 29 -10 59 6 67 37 3 14 9 25 13 25 13 0 31 -24 31 -42 0 -10 25
-42 55 -72 49 -48 55 -57 55 -95 0 -52 -47 -148 -91 -185 -39 -33 -39 -35 76
-179 110 -138 238 -258 316 -298 56 -28 70 -31 121 -26 41 4 60 1 66 -8 39
-66 313 -74 425 -12 38 21 83 81 110 147 21 53 63 97 104 111 76 25 128 8 598
-185 153 -63 224 -80 331 -81 127 0 127 0 118 140 -10 163 25 268 70 211 6 -7
79 -37 161 -66 114 -39 165 -52 215 -53 77 -2 86 12 46 73 -14 22 -26 41 -26
43 0 11 97 28 198 36 182 14 197 37 162 257 -21 125 -21 136 -6 159 9 14 22
25 29 25 32 0 124 -55 177 -106 72 -68 109 -79 208 -58 104 22 203 56 210 73
3 8 -6 48 -21 88 -23 65 -24 74 -11 88 9 8 32 15 52 15 109 0 148 39 120 118
-14 38 -19 119 -28 412 -13 454 -36 920 -55 1150 -39 462 -110 867 -215 1230
-73 248 -91 295 -117 293 -17 -2 -25 10 -48 75 -106 301 -285 512 -536 631
-152 73 -290 91 -394 51 -27 -10 -80 -28 -117 -40 -64 -21 -68 -21 -102 -5
-62 30 -110 110 -151 252 -37 128 -57 288 -53 418 4 93 10 124 37 200 19 50
40 118 49 153 20 78 10 124 -48 221 -29 48 -40 78 -40 107 0 60 13 72 39 35
40 -56 70 -136 87 -231 19 -110 23 -121 67 -153 58 -43 131 -67 226 -74 89 -6
90 -6 96 18 3 13 6 123 8 244 2 209 1 222 -20 261 -69 129 -371 337 -598 413
-84 27 -239 47 -499 64 -39 2 -40 3 -51 52 -15 64 -30 93 -122 228 -139 204
-187 338 -132 368 35 18 100 4 127 -27 22 -25 23 -32 16 -115 -6 -77 -4 -89
10 -95 23 -9 53 20 83 80 36 72 27 105 -51 181 -79 76 -152 112 -283 139 -57
11 -103 24 -103 28 0 15 82 67 141 90 33 13 75 35 92 49 l31 26 -30 16 c-111
57 -251 2 -373 -148 -90 -111 -120 -202 -141 -430 -6 -66 -17 -150 -25 -188
-45 -215 -307 -628 -493 -775 l-41 -33 -38 20 c-21 10 -58 25 -83 32 -52 14
-90 44 -90 71 0 11 7 33 16 49 24 48 5 91 -64 138 -67 46 -140 121 -204 212
-69 97 -296 486 -389 669 l-44 85 -96 6 c-179 12 -228 51 -309 245 l-42 99 5
105 c7 128 27 210 77 315 53 110 51 104 60 255 6 109 14 155 40 240 38 122 51
285 31 382 -39 185 -196 334 -363 344 -35 2 -74 0 -88 -5z m-763 -2681 c7 -14
12 -52 12 -85 l-2 -60 -7 55 c-17 135 -61 134 -126 -5 -39 -82 -41 -80 -14 7
24 79 59 121 97 116 17 -2 32 -12 40 -28z m-51 -151 c-33 -26 -53 -73 -71
-169 l-15 -75 4 70 c2 40 11 87 20 107 21 43 60 88 77 88 6 0 0 -9 -15 -21z
m41 -101 c-3 -7 -5 -2 -5 12 0 14 2 19 5 13 2 -7 2 -19 0 -25z m3901 6 c63
-21 105 -53 97 -76 -9 -23 -49 -40 -248 -109 -111 -38 -188 -59 -217 -59 l-45
0 -40 76 c-22 42 -41 79 -43 84 -2 4 21 13 50 20 29 7 82 21 118 31 169 50
250 58 328 33z m-3914 -73 c-4 -23 -9 -40 -11 -37 -3 3 -2 23 2 46 4 23 9 39
11 37 3 -2 2 -23 -2 -46z m-17 -73 c-3 -8 -6 -5 -6 6 -1 11 2 17 5 13 3 -3 4
-12 1 -19z m442 -264 c-6 -16 -13 -24 -16 -17 -5 13 16 58 23 50 3 -2 -1 -17
-7 -33z m278 11 c9 -24 -1 -27 -15 -5 -8 13 -8 20 -2 20 6 0 13 -7 17 -15z
m-214 -21 c-7 -20 -19 -17 -19 5 0 11 6 17 13 14 6 -3 9 -11 6 -19z m-513 -36
c0 -4 -4 -8 -10 -8 -5 0 -10 4 -10 9 0 5 -3 18 -6 28 -5 16 -4 16 10 -1 9 -11
16 -23 16 -28z m64 -67 c14 -16 16 -22 6 -19 -19 6 -60 66 -60 87 1 9 8 3 17
-14 8 -16 25 -41 37 -54z m-2246 24 c10 -10 -44 -68 -86 -92 -43 -26 -55 -28
-152 -28 -88 0 -115 4 -168 25 -42 17 -62 30 -60 40 8 44 166 72 353 64 60 -3
111 -7 113 -9z m2781 -1 c10 -9 -45 -3 -59 6 -11 7 -5 8 20 4 19 -4 37 -8 39
-10z"/>
</g>
</svg>
